<?xml version="1.0" standalone="no"?>
<!DOCTYPE svg PUBLIC "-//W3C//DTD SVG 20010904//EN"
 "http://www.w3.org/TR/2001/REC-SVG-20010904/DTD/svg10.dtd">
<svg version="1.0" xmlns="http://www.w3.org/2000/svg"
 width="700.000000pt" height="700.000000pt" viewBox="0 0 700.000000 700.000000"
 preserveAspectRatio="xMidYMid meet">
<metadata>
Created by potrace 1.11, written by Peter Selinger 2001-2013
</metadata>
<g transform="translate(0.000000,700.000000) scale(0.100000,-0.100000)"
fill="#000000" stroke="none">
<path d="M6125 6921 c-16 -10 -106 -63 -200 -118 -266 -156 -707 -414 -740
-433 -16 -10 -221 -130 -455 -267 -234 -138 -440 -259 -459 -269 -18 -10 -41
-23 -50 -29 -16 -10 -307 -182 -339 -200 -9 -5 -49 -28 -87 -50 l-70 -39 55
-8 c30 -4 78 -10 105 -13 54 -6 110 -13 165 -20 19 -3 55 -7 80 -10 100 -12
205 -26 206 -28 1 -1 -83 -119 -188 -262 -104 -143 -197 -271 -206 -285 -28
-40 -420 -584 -430 -595 -5 -6 -17 -23 -26 -38 l-18 -27 -22 33 c-12 17 -105
147 -206 287 -101 140 -243 338 -316 440 -73 102 -204 284 -291 404 l-158 219
-85 37 c-108 47 -675 297 -715 315 -16 7 -60 27 -97 44 -37 17 -96 42 -130 57
-35 14 -92 40 -128 56 -36 17 -78 36 -95 43 -38 16 -258 112 -310 136 -198 89
-450 197 -453 195 -1 -2 21 -39 51 -82 29 -44 372 -556 762 -1139 390 -583
853 -1276 1030 -1540 177 -264 629 -941 1005 -1505 376 -564 686 -1027 690
-1030 4 -3 9 -10 11 -15 2 -6 48 -76 102 -156 l98 -146 117 -43 c64 -23 144
-52 177 -65 33 -13 173 -65 310 -115 138 -51 284 -105 325 -120 41 -16 170
-63 285 -105 199 -73 659 -244 919 -341 65 -24 121 -42 123 -40 3 3 -9 24 -26
48 -43 61 -265 370 -334 464 -32 43 -90 125 -130 180 -40 56 -80 112 -90 125
-10 13 -66 92 -125 174 -59 83 -172 240 -251 350 -80 110 -154 214 -165 230
-12 17 -24 32 -27 35 -3 3 -21 28 -39 55 -19 28 -38 55 -42 60 -5 6 -84 115
-176 242 -154 215 -238 332 -670 933 -85 118 -168 233 -184 255 -17 22 -97
135 -179 250 -83 116 -157 218 -165 228 -9 11 -14 21 -12 23 4 3 64 -45 198
-160 14 -11 48 -39 75 -60 28 -22 55 -44 60 -50 20 -22 156 -129 159 -125 1 2
110 166 242 364 131 198 241 362 245 365 3 3 8 10 10 15 2 6 108 165 234 354
127 189 237 354 245 367 8 13 87 131 175 263 130 195 163 238 180 236 11 -2
61 -9 110 -15 86 -11 115 -14 188 -24 17 -3 57 -8 87 -11 30 -3 63 -8 73 -11
16 -5 17 6 18 138 0 79 2 253 4 388 2 135 6 460 10 723 3 262 2 477 -2 477 -4
0 -21 -9 -38 -19z"/>
<path d="M2533 2958 c-22 -29 -187 -260 -367 -513 -180 -253 -334 -469 -342
-480 -33 -45 -396 -552 -412 -575 -17 -24 -719 -1011 -755 -1060 -117 -161
-196 -274 -193 -278 2 -2 82 26 178 61 95 36 310 115 478 177 168 62 384 142
480 177 96 35 191 71 210 79 43 17 419 155 640 235 173 63 182 66 242 92 38
17 24 -3 339 477 59 91 151 230 204 310 142 215 134 180 60 291 -35 52 -68 99
-72 104 -7 9 -148 217 -401 595 -50 74 -95 140 -99 145 -4 6 -39 56 -77 113
-37 56 -70 102 -71 102 -1 0 -21 -24 -42 -52z"/>
</g>
</svg>
